<svg width="705" height="984" viewBox="0 0 705 984" fill="none" xmlns="http://www.w3.org/2000/svg">
<g opacity="0.5" clip-path="url(#clip0_713_1711)">
<path d="M301.5 175H337.5C339.887 175 342.176 175.948 343.864 177.636C345.552 179.324 346.5 181.613 346.5 184V229C346.5 231.387 345.552 233.676 343.864 235.364C342.176 237.052 339.887 238 337.5 238C337.5 240.387 336.552 242.676 334.864 244.364C333.176 246.052 330.887 247 328.5 247H292.5C290.113 247 287.824 246.052 286.136 244.364C284.448 242.676 283.5 240.387 283.5 238H288C288 239.193 288.474 240.338 289.318 241.182C290.162 242.026 291.307 242.5 292.5 242.5H328.5C329.693 242.5 330.838 242.026 331.682 241.182C332.526 240.338 333 239.193 333 238V193C333 191.807 332.526 190.662 331.682 189.818C330.838 188.974 329.693 188.5 328.5 188.5H292.5C291.307 188.5 290.162 188.974 289.318 189.818C288.474 190.662 288 191.807 288 193H283.5C283.5 190.613 284.448 188.324 286.136 186.636C287.824 184.948 290.113 184 292.5 184H328.5C330.887 184 333.176 184.948 334.864 186.636C336.552 188.324 337.5 190.613 337.5 193V233.5C338.693 233.5 339.838 233.026 340.682 232.182C341.526 231.338 342 230.193 342 229V184C342 182.807 341.526 181.662 340.682 180.818C339.838 179.974 338.693 179.5 337.5 179.5H301.5C300.307 179.5 299.162 179.974 298.318 180.818C297.474 181.662 297 182.807 297 184H292.5C292.5 181.613 293.448 179.324 295.136 177.636C296.824 175.948 299.113 175 301.5 175V175Z" fill="#C7CFCA"/>
<path d="M283.5 202V199.75C283.5 199.153 283.737 198.581 284.159 198.159C284.581 197.737 285.153 197.5 285.75 197.5C286.347 197.5 286.919 197.737 287.341 198.159C287.763 198.581 288 199.153 288 199.75V202H290.25C290.847 202 291.419 202.237 291.841 202.659C292.263 203.081 292.5 203.653 292.5 204.25C292.5 204.847 292.263 205.419 291.841 205.841C291.419 206.263 290.847 206.5 290.25 206.5H281.25C280.653 206.5 280.081 206.263 279.659 205.841C279.237 205.419 279 204.847 279 204.25C279 203.653 279.237 203.081 279.659 202.659C280.081 202.237 280.653 202 281.25 202H283.5ZM283.5 215.5V213.25C283.5 212.653 283.737 212.081 284.159 211.659C284.581 211.237 285.153 211 285.75 211C286.347 211 286.919 211.237 287.341 211.659C287.763 212.081 288 212.653 288 213.25V215.5H290.25C290.847 215.5 291.419 215.737 291.841 216.159C292.263 216.581 292.5 217.153 292.5 217.75C292.5 218.347 292.263 218.919 291.841 219.341C291.419 219.763 290.847 220 290.25 220H281.25C280.653 220 280.081 219.763 279.659 219.341C279.237 218.919 279 218.347 279 217.75C279 217.153 279.237 216.581 279.659 216.159C280.081 215.737 280.653 215.5 281.25 215.5H283.5ZM283.5 226.75V229H281.25C280.653 229 280.081 229.237 279.659 229.659C279.237 230.081 279 230.653 279 231.25C279 231.847 279.237 232.419 279.659 232.841C280.081 233.263 280.653 233.5 281.25 233.5H290.25C290.847 233.5 291.419 233.263 291.841 232.841C292.263 232.419 292.5 231.847 292.5 231.25C292.5 230.653 292.263 230.081 291.841 229.659C291.419 229.237 290.847 229 290.25 229H288V226.75C288 226.153 287.763 225.581 287.341 225.159C286.919 224.737 286.347 224.5 285.75 224.5C285.153 224.5 284.581 224.737 284.159 225.159C283.737 225.581 283.5 226.153 283.5 226.75V226.75Z" fill="#C7CFCA"/>
</g>
<g opacity="0.5" clip-path="url(#clip1_713_1711)">
<path d="M116.812 798H161.312C164.263 798 167.093 799.172 169.179 801.258C171.265 803.345 172.438 806.174 172.438 809.125V864.75C172.438 867.701 171.265 870.53 169.179 872.617C167.093 874.703 164.263 875.875 161.312 875.875C161.312 878.826 160.14 881.655 158.054 883.742C155.968 885.828 153.138 887 150.188 887H105.688C102.737 887 99.9073 885.828 97.8209 883.742C95.7346 881.655 94.5625 878.826 94.5625 875.875H100.125C100.125 877.35 100.711 878.765 101.754 879.808C102.797 880.851 104.212 881.438 105.688 881.438H150.188C151.663 881.438 153.078 880.851 154.121 879.808C155.164 878.765 155.75 877.35 155.75 875.875V820.25C155.75 818.775 155.164 817.36 154.121 816.317C153.078 815.274 151.663 814.688 150.188 814.688H105.688C104.212 814.688 102.797 815.274 101.754 816.317C100.711 817.36 100.125 818.775 100.125 820.25H94.5625C94.5625 817.299 95.7346 814.47 97.8209 812.383C99.9073 810.297 102.737 809.125 105.688 809.125H150.188C153.138 809.125 155.968 810.297 158.054 812.383C160.14 814.47 161.312 817.299 161.312 820.25V870.312C162.788 870.312 164.203 869.726 165.246 868.683C166.289 867.64 166.875 866.225 166.875 864.75V809.125C166.875 807.65 166.289 806.235 165.246 805.192C164.203 804.149 162.788 803.562 161.312 803.562H116.812C115.337 803.562 113.922 804.149 112.879 805.192C111.836 806.235 111.25 807.65 111.25 809.125H105.688C105.688 806.174 106.86 803.345 108.946 801.258C111.032 799.172 113.862 798 116.812 798V798Z" fill="#C7CFCA"/>
<path d="M94.5625 831.375V828.594C94.5625 827.856 94.8555 827.149 95.3771 826.627C95.8987 826.106 96.6061 825.812 97.3438 825.812C98.0814 825.812 98.7888 826.106 99.3104 826.627C99.832 827.149 100.125 827.856 100.125 828.594V831.375H102.906C103.644 831.375 104.351 831.668 104.873 832.19C105.394 832.711 105.688 833.419 105.688 834.156C105.688 834.894 105.394 835.601 104.873 836.123C104.351 836.644 103.644 836.938 102.906 836.938H91.7812C91.0436 836.938 90.3362 836.644 89.8146 836.123C89.293 835.601 89 834.894 89 834.156C89 833.419 89.293 832.711 89.8146 832.19C90.3362 831.668 91.0436 831.375 91.7812 831.375H94.5625ZM94.5625 848.062V845.281C94.5625 844.544 94.8555 843.836 95.3771 843.315C95.8987 842.793 96.6061 842.5 97.3438 842.5C98.0814 842.5 98.7888 842.793 99.3104 843.315C99.832 843.836 100.125 844.544 100.125 845.281V848.062H102.906C103.644 848.062 104.351 848.356 104.873 848.877C105.394 849.399 105.688 850.106 105.688 850.844C105.688 851.581 105.394 852.289 104.873 852.81C104.351 853.332 103.644 853.625 102.906 853.625H91.7812C91.0436 853.625 90.3362 853.332 89.8146 852.81C89.293 852.289 89 851.581 89 850.844C89 850.106 89.293 849.399 89.8146 848.877C90.3362 848.356 91.0436 848.062 91.7812 848.062H94.5625ZM94.5625 861.969V864.75H91.7812C91.0436 864.75 90.3362 865.043 89.8146 865.565C89.293 866.086 89 866.794 89 867.531C89 868.269 89.293 868.976 89.8146 869.498C90.3362 870.019 91.0436 870.312 91.7812 870.312H102.906C103.644 870.312 104.351 870.019 104.873 869.498C105.394 868.976 105.688 868.269 105.688 867.531C105.688 866.794 105.394 866.086 104.873 865.565C104.351 865.043 103.644 864.75 102.906 864.75H100.125V861.969C100.125 861.231 99.832 860.524 99.3104 860.002C98.7888 859.481 98.0814 859.188 97.3438 859.188C96.6061 859.188 95.8987 859.481 95.3771 860.002C94.8555 860.524 94.5625 861.231 94.5625 861.969V861.969Z" fill="#C7CFCA"/>
</g>
<g opacity="0.5" clip-path="url(#clip2_713_1711)">
<path d="M643.812 589H688.312C691.263 589 694.093 590.172 696.179 592.258C698.265 594.345 699.438 597.174 699.438 600.125V655.75C699.438 658.701 698.265 661.53 696.179 663.617C694.093 665.703 691.263 666.875 688.312 666.875C688.312 669.826 687.14 672.655 685.054 674.742C682.968 676.828 680.138 678 677.188 678H632.688C629.737 678 626.907 676.828 624.821 674.742C622.735 672.655 621.562 669.826 621.562 666.875H627.125C627.125 668.35 627.711 669.765 628.754 670.808C629.797 671.851 631.212 672.438 632.688 672.438H677.188C678.663 672.438 680.078 671.851 681.121 670.808C682.164 669.765 682.75 668.35 682.75 666.875V611.25C682.75 609.775 682.164 608.36 681.121 607.317C680.078 606.274 678.663 605.688 677.188 605.688H632.688C631.212 605.688 629.797 606.274 628.754 607.317C627.711 608.36 627.125 609.775 627.125 611.25H621.562C621.562 608.299 622.735 605.47 624.821 603.383C626.907 601.297 629.737 600.125 632.688 600.125H677.188C680.138 600.125 682.968 601.297 685.054 603.383C687.14 605.47 688.312 608.299 688.312 611.25V661.312C689.788 661.312 691.203 660.726 692.246 659.683C693.289 658.64 693.875 657.225 693.875 655.75V600.125C693.875 598.65 693.289 597.235 692.246 596.192C691.203 595.149 689.788 594.562 688.312 594.562H643.812C642.337 594.562 640.922 595.149 639.879 596.192C638.836 597.235 638.25 598.65 638.25 600.125H632.688C632.688 597.174 633.86 594.345 635.946 592.258C638.032 590.172 640.862 589 643.812 589V589Z" fill="#C7CFCA"/>
<path d="M621.562 622.375V619.594C621.562 618.856 621.856 618.149 622.377 617.627C622.899 617.106 623.606 616.812 624.344 616.812C625.081 616.812 625.789 617.106 626.31 617.627C626.832 618.149 627.125 618.856 627.125 619.594V622.375H629.906C630.644 622.375 631.351 622.668 631.873 623.19C632.394 623.711 632.688 624.419 632.688 625.156C632.688 625.894 632.394 626.601 631.873 627.123C631.351 627.644 630.644 627.938 629.906 627.938H618.781C618.044 627.938 617.336 627.644 616.815 627.123C616.293 626.601 616 625.894 616 625.156C616 624.419 616.293 623.711 616.815 623.19C617.336 622.668 618.044 622.375 618.781 622.375H621.562ZM621.562 639.062V636.281C621.562 635.544 621.856 634.836 622.377 634.315C622.899 633.793 623.606 633.5 624.344 633.5C625.081 633.5 625.789 633.793 626.31 634.315C626.832 634.836 627.125 635.544 627.125 636.281V639.062H629.906C630.644 639.062 631.351 639.356 631.873 639.877C632.394 640.399 632.688 641.106 632.688 641.844C632.688 642.581 632.394 643.289 631.873 643.81C631.351 644.332 630.644 644.625 629.906 644.625H618.781C618.044 644.625 617.336 644.332 616.815 643.81C616.293 643.289 616 642.581 616 641.844C616 641.106 616.293 640.399 616.815 639.877C617.336 639.356 618.044 639.062 618.781 639.062H621.562ZM621.562 652.969V655.75H618.781C618.044 655.75 617.336 656.043 616.815 656.565C616.293 657.086 616 657.794 616 658.531C616 659.269 616.293 659.976 616.815 660.498C617.336 661.019 618.044 661.312 618.781 661.312H629.906C630.644 661.312 631.351 661.019 631.873 660.498C632.394 659.976 632.688 659.269 632.688 658.531C632.688 657.794 632.394 657.086 631.873 656.565C631.351 656.043 630.644 655.75 629.906 655.75H627.125V652.969C627.125 652.231 626.832 651.524 626.31 651.002C625.789 650.481 625.081 650.188 624.344 650.188C623.606 650.188 622.899 650.481 622.377 651.002C621.856 651.524 621.562 652.231 621.562 652.969V652.969Z" fill="#C7CFCA"/>
</g>
<g opacity="0.5" clip-path="url(#clip3_713_1711)">
<path d="M27.8125 454H72.3125C75.263 454 78.0927 455.172 80.1791 457.258C82.2654 459.345 83.4375 462.174 83.4375 465.125V520.75C83.4375 523.701 82.2654 526.53 80.1791 528.617C78.0927 530.703 75.263 531.875 72.3125 531.875C72.3125 534.826 71.1404 537.655 69.0541 539.742C66.9677 541.828 64.138 543 61.1875 543H16.6875C13.737 543 10.9073 541.828 8.82094 539.742C6.7346 537.655 5.5625 534.826 5.5625 531.875H11.125C11.125 533.35 11.711 534.765 12.7542 535.808C13.7974 536.851 15.2122 537.438 16.6875 537.438H61.1875C62.6628 537.438 64.0776 536.851 65.1208 535.808C66.164 534.765 66.75 533.35 66.75 531.875V476.25C66.75 474.775 66.164 473.36 65.1208 472.317C64.0776 471.274 62.6628 470.688 61.1875 470.688H16.6875C15.2122 470.688 13.7974 471.274 12.7542 472.317C11.711 473.36 11.125 474.775 11.125 476.25H5.5625C5.5625 473.299 6.7346 470.47 8.82094 468.383C10.9073 466.297 13.737 465.125 16.6875 465.125H61.1875C64.138 465.125 66.9677 466.297 69.0541 468.383C71.1404 470.47 72.3125 473.299 72.3125 476.25V526.312C73.7878 526.312 75.2026 525.726 76.2458 524.683C77.289 523.64 77.875 522.225 77.875 520.75V465.125C77.875 463.65 77.289 462.235 76.2458 461.192C75.2026 460.149 73.7878 459.562 72.3125 459.562H27.8125C26.3372 459.562 24.9224 460.149 23.8792 461.192C22.836 462.235 22.25 463.65 22.25 465.125H16.6875C16.6875 462.174 17.8596 459.345 19.9459 457.258C22.0323 455.172 24.862 454 27.8125 454V454Z" fill="#C7CFCA"/>
<path d="M5.5625 487.375V484.594C5.5625 483.856 5.85552 483.149 6.37711 482.627C6.89869 482.106 7.60612 481.812 8.34375 481.812C9.08138 481.812 9.78881 482.106 10.3104 482.627C10.832 483.149 11.125 483.856 11.125 484.594V487.375H13.9062C14.6439 487.375 15.3513 487.668 15.8729 488.19C16.3945 488.711 16.6875 489.419 16.6875 490.156C16.6875 490.894 16.3945 491.601 15.8729 492.123C15.3513 492.644 14.6439 492.938 13.9062 492.938H2.78125C2.04362 492.938 1.33619 492.644 0.814609 492.123C0.293024 491.601 0 490.894 0 490.156C0 489.419 0.293024 488.711 0.814609 488.19C1.33619 487.668 2.04362 487.375 2.78125 487.375H5.5625ZM5.5625 504.062V501.281C5.5625 500.544 5.85552 499.836 6.37711 499.315C6.89869 498.793 7.60612 498.5 8.34375 498.5C9.08138 498.5 9.78881 498.793 10.3104 499.315C10.832 499.836 11.125 500.544 11.125 501.281V504.062H13.9062C14.6439 504.062 15.3513 504.356 15.8729 504.877C16.3945 505.399 16.6875 506.106 16.6875 506.844C16.6875 507.581 16.3945 508.289 15.8729 508.81C15.3513 509.332 14.6439 509.625 13.9062 509.625H2.78125C2.04362 509.625 1.33619 509.332 0.814609 508.81C0.293024 508.289 0 507.581 0 506.844C0 506.106 0.293024 505.399 0.814609 504.877C1.33619 504.356 2.04362 504.062 2.78125 504.062H5.5625ZM5.5625 517.969V520.75H2.78125C2.04362 520.75 1.33619 521.043 0.814609 521.565C0.293024 522.086 0 522.794 0 523.531C0 524.269 0.293024 524.976 0.814609 525.498C1.33619 526.019 2.04362 526.312 2.78125 526.312H13.9062C14.6439 526.312 15.3513 526.019 15.8729 525.498C16.3945 524.976 16.6875 524.269 16.6875 523.531C16.6875 522.794 16.3945 522.086 15.8729 521.565C15.3513 521.043 14.6439 520.75 13.9062 520.75H11.125V517.969C11.125 517.231 10.832 516.524 10.3104 516.002C9.78881 515.481 9.08138 515.188 8.34375 515.188C7.60612 515.188 6.89869 515.481 6.37711 516.002C5.85552 516.524 5.5625 517.231 5.5625 517.969V517.969Z" fill="#C7CFCA"/>
</g>
<g opacity="0.5" clip-path="url(#clip4_713_1711)">
<path d="M610.625 96.3059C607.984 98.8818 604.429 100.303 600.74 100.257C597.051 100.211 593.532 98.7021 590.956 96.0614C588.38 93.4206 586.959 89.8648 587.005 86.1761C587.05 82.4874 588.56 78.968 591.2 76.3921L627.045 41.4277C628.63 39.8822 630.763 39.0293 632.976 39.0569C635.19 39.0844 637.301 39.99 638.847 41.5744C640.392 43.1588 641.245 45.2923 641.218 47.5056C641.19 49.7188 640.284 51.8304 638.7 53.3759L610.821 80.5705C610.293 81.0857 609.581 81.37 608.844 81.3608C608.106 81.3516 607.402 81.0498 606.887 80.5216C606.372 79.9935 606.087 79.2823 606.097 78.5446C606.106 77.8068 606.408 77.1029 606.936 76.5878L634.815 49.3932C635.343 48.878 635.645 48.1741 635.654 47.4364C635.663 46.6987 635.379 45.9875 634.864 45.4593C634.349 44.9312 633.645 44.6293 632.907 44.6202C632.169 44.611 631.458 44.8953 630.93 45.4104L595.085 80.3749C594.301 81.1402 593.675 82.0524 593.243 83.0597C592.811 84.0669 592.581 85.1494 592.568 86.2453C592.554 87.3411 592.757 88.429 593.163 89.4466C593.57 90.4643 594.173 91.3919 594.939 92.1764C595.704 92.961 596.616 93.5871 597.623 94.019C598.631 94.451 599.713 94.6803 600.809 94.694C601.905 94.7076 602.993 94.5052 604.01 94.0984C605.028 93.6917 605.956 93.0884 606.74 92.3231L642.585 57.3587C645.226 54.7828 646.735 51.2634 646.781 47.5747C646.827 43.886 645.405 40.3302 642.829 37.6895C640.254 35.0487 636.734 33.5394 633.046 33.4936C629.357 33.4477 625.801 34.8691 623.16 37.4449L595.281 64.6395C594.753 65.1547 594.042 65.4389 593.304 65.4298C592.566 65.4206 591.862 65.1187 591.347 64.5906C590.832 64.0624 590.548 63.3513 590.557 62.6135C590.566 61.8758 590.868 61.1719 591.396 60.6567L619.275 33.4622C622.972 29.8559 627.951 27.8661 633.115 27.9303C638.279 27.9945 643.206 30.1075 646.812 33.8045C650.418 37.5015 652.408 42.4797 652.344 47.6439C652.28 52.8081 650.167 57.7352 646.47 61.3415L610.625 96.3059Z" fill="#C7CFCA"/>
</g>
<g opacity="0.5" clip-path="url(#clip5_713_1711)">
<path d="M616.625 482.306C613.984 484.882 610.429 486.303 606.74 486.257C603.051 486.211 599.532 484.702 596.956 482.061C594.38 479.421 592.959 475.865 593.005 472.176C593.05 468.487 594.56 464.968 597.2 462.392L633.045 427.428C634.63 425.882 636.763 425.029 638.976 425.057C641.19 425.084 643.301 425.99 644.847 427.574C646.392 429.159 647.245 431.292 647.218 433.505C647.19 435.719 646.284 437.83 644.7 439.376L616.821 466.57C616.293 467.086 615.581 467.37 614.844 467.361C614.106 467.352 613.402 467.05 612.887 466.522C612.372 465.993 612.087 465.282 612.097 464.544C612.106 463.807 612.408 463.103 612.936 462.588L640.815 435.393C641.343 434.878 641.645 434.174 641.654 433.436C641.663 432.699 641.379 431.987 640.864 431.459C640.349 430.931 639.645 430.629 638.907 430.62C638.169 430.611 637.458 430.895 636.93 431.41L601.085 466.375C600.301 467.14 599.675 468.052 599.243 469.06C598.811 470.067 598.581 471.149 598.568 472.245C598.554 473.341 598.757 474.429 599.163 475.447C599.57 476.464 600.173 477.392 600.939 478.176C601.704 478.961 602.616 479.587 603.623 480.019C604.631 480.451 605.713 480.68 606.809 480.694C607.905 480.708 608.993 480.505 610.01 480.098C611.028 479.692 611.956 479.088 612.74 478.323L648.585 443.359C651.226 440.783 652.735 437.263 652.781 433.575C652.827 429.886 651.405 426.33 648.829 423.689C646.254 421.049 642.734 419.539 639.046 419.494C635.357 419.448 631.801 420.869 629.16 423.445L601.281 450.639C600.753 451.155 600.042 451.439 599.304 451.43C598.566 451.421 597.862 451.119 597.347 450.591C596.832 450.062 596.548 449.351 596.557 448.613C596.566 447.876 596.868 447.172 597.396 446.657L625.275 419.462C628.972 415.856 633.951 413.866 639.115 413.93C644.279 413.994 649.206 416.107 652.812 419.804C656.418 423.501 658.408 428.48 658.344 433.644C658.28 438.808 656.167 443.735 652.47 447.341L616.625 482.306Z" fill="#C7CFCA"/>
</g>
<g opacity="0.5" clip-path="url(#clip6_713_1711)">
<path d="M478.252 214.292C478.016 214.183 477.76 214.126 477.5 214.126C477.24 214.126 476.984 214.183 476.748 214.292L450.03 226.761C449.715 226.908 449.45 227.144 449.268 227.439C449.085 227.734 448.993 228.077 449.002 228.424C449.012 228.771 449.123 229.108 449.321 229.393C449.519 229.678 449.796 229.898 450.119 230.028L476.837 240.715C477.263 240.886 477.737 240.886 478.163 240.715L498.875 232.436V253.312C497.93 253.312 497.024 253.688 496.356 254.356C495.688 255.024 495.313 255.93 495.313 256.875V264H506V256.875C506 255.93 505.625 255.024 504.957 254.356C504.288 253.688 503.382 253.312 502.438 253.312V231.008L504.881 230.028C505.204 229.898 505.481 229.678 505.679 229.393C505.877 229.108 505.988 228.771 505.998 228.424C506.007 228.077 505.915 227.734 505.732 227.439C505.55 227.144 505.285 226.908 504.97 226.761L478.252 214.292V214.292Z" fill="#C7CFCA"/>
<path d="M463.877 239.176C463.648 239.09 463.403 239.052 463.158 239.064C462.913 239.077 462.674 239.14 462.454 239.249C462.235 239.359 462.041 239.512 461.883 239.7C461.726 239.888 461.609 240.106 461.54 240.341L459.759 246.398C459.634 246.823 459.672 247.279 459.866 247.678C460.059 248.076 460.395 248.388 460.806 248.553L476.837 254.965C477.263 255.136 477.737 255.136 478.163 254.965L494.194 248.553C494.605 248.388 494.941 248.076 495.134 247.678C495.328 247.279 495.366 246.823 495.241 246.398L493.46 240.341C493.391 240.106 493.274 239.888 493.117 239.7C492.959 239.512 492.765 239.359 492.546 239.249C492.326 239.14 492.087 239.077 491.842 239.064C491.597 239.052 491.352 239.09 491.123 239.176L477.5 244.285L463.877 239.176Z" fill="#C7CFCA"/>
</g>
<g opacity="0.5" clip-path="url(#clip7_713_1711)">
<path d="M218.252 934.292C218.016 934.183 217.76 934.126 217.5 934.126C217.24 934.126 216.984 934.183 216.748 934.292L190.03 946.761C189.715 946.908 189.45 947.144 189.268 947.439C189.085 947.734 188.993 948.077 189.002 948.424C189.012 948.771 189.123 949.108 189.321 949.393C189.519 949.678 189.796 949.899 190.119 950.028L216.837 960.716C217.263 960.886 217.737 960.886 218.163 960.716L238.875 952.436V973.313C237.93 973.313 237.024 973.688 236.356 974.356C235.688 975.024 235.312 975.93 235.312 976.875V984H246V976.875C246 975.93 245.625 975.024 244.957 974.356C244.288 973.688 243.382 973.313 242.437 973.313V951.008L244.881 950.028C245.204 949.899 245.481 949.678 245.679 949.393C245.877 949.108 245.988 948.771 245.998 948.424C246.007 948.077 245.915 947.734 245.732 947.439C245.55 947.144 245.285 946.908 244.97 946.761L218.252 934.292V934.292Z" fill="#C7CFCA"/>
<path d="M203.877 959.176C203.648 959.09 203.403 959.052 203.158 959.064C202.913 959.077 202.674 959.14 202.454 959.249C202.235 959.359 202.041 959.512 201.883 959.7C201.726 959.888 201.609 960.106 201.54 960.341L199.759 966.398C199.634 966.823 199.672 967.279 199.866 967.678C200.059 968.076 200.395 968.388 200.806 968.553L216.837 974.965C217.263 975.136 217.737 975.136 218.163 974.965L234.194 968.553C234.605 968.388 234.941 968.076 235.134 967.678C235.328 967.279 235.366 966.823 235.241 966.398L233.46 960.341C233.391 960.106 233.274 959.888 233.117 959.7C232.959 959.512 232.765 959.359 232.546 959.249C232.326 959.14 232.087 959.077 231.842 959.064C231.597 959.052 231.352 959.09 231.123 959.176L217.5 964.285L203.877 959.176Z" fill="#C7CFCA"/>
</g>
<g opacity="0.5" clip-path="url(#clip8_713_1711)">
<path d="M77.8176 214.932C77.5615 214.813 77.2825 214.751 77 214.751C76.7175 214.751 76.4385 214.813 76.1824 214.932L47.1199 228.495C46.7776 228.654 46.4896 228.911 46.2911 229.232C46.0925 229.553 45.9923 229.926 46.0026 230.303C46.0129 230.681 46.1333 231.047 46.349 231.357C46.5647 231.667 46.8663 231.907 47.2168 232.048L76.2792 243.673C76.7419 243.858 77.2581 243.858 77.7207 243.673L100.25 234.668V257.375C99.2223 257.375 98.2367 257.783 97.51 258.51C96.7833 259.237 96.375 260.222 96.375 261.25V269H108V261.25C108 260.222 107.592 259.237 106.865 258.51C106.138 257.783 105.153 257.375 104.125 257.375V233.114L106.783 232.048C107.134 231.907 107.435 231.667 107.651 231.357C107.867 231.047 107.987 230.681 107.997 230.303C108.008 229.926 107.907 229.553 107.709 229.232C107.51 228.911 107.222 228.654 106.88 228.495L77.8176 214.932V214.932Z" fill="#C7CFCA"/>
<path d="M62.182 241.999C61.9325 241.905 61.6663 241.864 61.4001 241.877C61.1338 241.891 60.8732 241.959 60.6346 242.078C60.396 242.197 60.1845 242.364 60.0134 242.568C59.8422 242.773 59.7151 243.01 59.64 243.266L57.7025 249.854C57.5668 250.316 57.6083 250.813 57.819 251.246C58.0296 251.68 58.3943 252.019 58.8417 252.198L76.2792 259.173C76.7419 259.358 77.2581 259.358 77.7207 259.173L95.1582 252.198C95.6057 252.019 95.9704 251.68 96.181 251.246C96.3917 250.813 96.4332 250.316 96.2975 249.854L94.36 243.266C94.2849 243.01 94.1578 242.773 93.9866 242.568C93.8155 242.364 93.604 242.197 93.3654 242.078C93.1268 241.959 92.8662 241.891 92.5999 241.877C92.3337 241.864 92.0675 241.905 91.818 241.999L77 247.556L62.182 241.999Z" fill="#C7CFCA"/>
</g>
<g opacity="0.5" clip-path="url(#clip9_713_1711)">
<path d="M429.818 24.9321C429.562 24.8129 429.282 24.7512 429 24.7512C428.718 24.7512 428.438 24.8129 428.182 24.9321L399.12 38.4946C398.778 38.6544 398.49 38.9106 398.291 39.2319C398.093 39.5533 397.992 39.9256 398.003 40.3031C398.013 40.6806 398.133 41.0469 398.349 41.3569C398.565 41.6669 398.866 41.9071 399.217 42.048L428.279 53.673C428.742 53.8584 429.258 53.8584 429.721 53.673L452.25 44.6675V67.375C451.222 67.375 450.237 67.7833 449.51 68.51C448.783 69.2367 448.375 70.2223 448.375 71.25V79H460V71.25C460 70.2223 459.592 69.2367 458.865 68.51C458.138 67.7833 457.153 67.375 456.125 67.375V43.1136L458.783 42.048C459.134 41.9071 459.435 41.6669 459.651 41.3569C459.867 41.0469 459.987 40.6806 459.997 40.3031C460.008 39.9256 459.907 39.5533 459.709 39.2319C459.51 38.9106 459.222 38.6544 458.88 38.4946L429.818 24.9321V24.9321Z" fill="#C7CFCA"/>
<path d="M414.182 51.999C413.933 51.905 413.666 51.8635 413.4 51.8772C413.134 51.8908 412.873 51.9592 412.635 52.0781C412.396 52.1971 412.185 52.364 412.013 52.5684C411.842 52.7728 411.715 53.0103 411.64 53.2661L409.703 59.8536C409.567 60.3161 409.608 60.8126 409.819 61.246C410.03 61.6795 410.394 62.0189 410.842 62.198L428.279 69.173C428.742 69.3584 429.258 69.3584 429.721 69.173L447.158 62.198C447.606 62.0189 447.97 61.6795 448.181 61.246C448.392 60.8126 448.433 60.3161 448.298 59.8536L446.36 53.2661C446.285 53.0103 446.158 52.7728 445.987 52.5684C445.815 52.364 445.604 52.1971 445.365 52.0781C445.127 51.9592 444.866 51.8908 444.6 51.8772C444.334 51.8635 444.068 51.905 443.818 51.999L429 57.5558L414.182 51.999Z" fill="#C7CFCA"/>
</g>
<g opacity="0.5" clip-path="url(#clip10_713_1711)">
<path d="M567.319 776.794C566.906 776.601 566.456 776.502 566 776.502C565.544 776.502 565.094 776.601 564.681 776.794L517.806 798.669C517.254 798.926 516.79 799.34 516.469 799.858C516.149 800.376 515.988 800.977 516.004 801.586C516.021 802.195 516.215 802.785 516.563 803.285C516.911 803.785 517.397 804.173 517.963 804.4L564.838 823.15C565.584 823.449 566.416 823.449 567.162 823.15L603.5 808.625V845.25C601.842 845.25 600.253 845.908 599.081 847.081C597.908 848.253 597.25 849.842 597.25 851.5V864H616V851.5C616 849.842 615.342 848.253 614.169 847.081C612.997 845.908 611.408 845.25 609.75 845.25V806.119L614.037 804.4C614.603 804.173 615.089 803.785 615.437 803.285C615.785 802.785 615.979 802.195 615.996 801.586C616.012 800.977 615.851 800.376 615.531 799.858C615.21 799.34 614.746 798.926 614.194 798.669L567.319 776.794V776.794Z" fill="#C7CFCA"/>
<path d="M542.1 820.45C541.698 820.298 541.268 820.232 540.839 820.253C540.409 820.275 539.989 820.386 539.604 820.578C539.219 820.769 538.878 821.039 538.602 821.368C538.326 821.698 538.121 822.081 538 822.494L534.875 833.119C534.656 833.865 534.723 834.665 535.063 835.365C535.403 836.064 535.991 836.611 536.712 836.9L564.837 848.15C565.584 848.449 566.416 848.449 567.162 848.15L595.287 836.9C596.009 836.611 596.597 836.064 596.937 835.365C597.277 834.665 597.344 833.865 597.125 833.119L594 822.494C593.879 822.081 593.674 821.698 593.398 821.368C593.122 821.039 592.781 820.769 592.396 820.578C592.011 820.386 591.591 820.275 591.161 820.253C590.732 820.232 590.302 820.298 589.9 820.45L566 829.413L542.1 820.45Z" fill="#C7CFCA"/>
</g>
<g opacity="0.5" clip-path="url(#clip11_713_1711)">
<path d="M80.6875 54.796C85.7209 52.206 92.9384 49.413 99.9568 48.545C107.521 47.607 113.937 48.986 117.656 53.809V122.031C112.338 118.321 105.599 117.81 99.3823 118.58C92.6711 119.42 85.9029 121.807 80.6875 124.257V54.796ZM123.344 53.809C127.063 48.986 133.479 47.607 141.043 48.545C148.062 49.413 155.279 52.206 160.312 54.796V124.257C155.091 121.807 148.329 119.413 141.618 118.587C135.396 117.81 128.662 118.314 123.344 122.031V53.809ZM120.5 47.481C114.898 41.552 106.776 40.67 99.3823 41.58C90.7714 42.651 82.0809 46.284 76.6664 49.315C76.1696 49.5931 75.7483 50.0413 75.4528 50.606C75.1574 51.1708 75.0002 51.8283 75 52.5V129.5C75.0001 130.086 75.1196 130.662 75.3476 131.176C75.5756 131.69 75.9047 132.125 76.3048 132.442C76.7049 132.759 77.1632 132.947 77.6378 132.99C78.1123 133.032 78.5879 132.927 79.0211 132.685C84.0374 129.885 92.1194 126.518 99.9511 125.545C107.965 124.551 114.682 126.154 118.282 131.684C118.548 132.093 118.886 132.423 119.27 132.649C119.654 132.876 120.074 132.994 120.5 132.994C120.926 132.994 121.346 132.876 121.73 132.649C122.114 132.423 122.452 132.093 122.718 131.684C126.318 126.154 133.035 124.551 141.043 125.545C148.881 126.518 156.968 129.885 161.979 132.685C162.412 132.927 162.888 133.032 163.362 132.99C163.837 132.947 164.295 132.759 164.695 132.442C165.095 132.125 165.424 131.69 165.652 131.176C165.88 130.662 166 130.086 166 129.5V52.5C166 51.8283 165.843 51.1708 165.547 50.606C165.252 50.0413 164.83 49.5931 164.334 49.315C158.919 46.284 150.229 42.651 141.618 41.58C134.224 40.663 126.102 41.552 120.5 47.481Z" fill="#C7CFCA"/>
</g>
<g opacity="0.5" clip-path="url(#clip12_713_1711)">
<path d="M383.688 862.796C388.721 860.206 395.938 857.413 402.957 856.545C410.521 855.607 416.937 856.986 420.656 861.809V930.031C415.338 926.321 408.599 925.81 402.382 926.58C395.671 927.42 388.903 929.807 383.688 932.257V862.796ZM426.344 861.809C430.063 856.986 436.479 855.607 444.043 856.545C451.062 857.413 458.279 860.206 463.312 862.796V932.257C458.091 929.807 451.329 927.413 444.618 926.587C438.396 925.81 431.662 926.314 426.344 930.031V861.809ZM423.5 855.481C417.898 849.552 409.776 848.67 402.382 849.58C393.771 850.651 385.081 854.284 379.666 857.315C379.17 857.593 378.748 858.041 378.453 858.606C378.157 859.171 378 859.828 378 860.5V937.5C378 938.086 378.12 938.662 378.348 939.176C378.576 939.69 378.905 940.125 379.305 940.442C379.705 940.759 380.163 940.947 380.638 940.99C381.112 941.032 381.588 940.927 382.021 940.685C387.037 937.885 395.119 934.518 402.951 933.545C410.965 932.551 417.682 934.154 421.282 939.684C421.548 940.093 421.886 940.423 422.27 940.649C422.654 940.876 423.074 940.994 423.5 940.994C423.926 940.994 424.346 940.876 424.73 940.649C425.114 940.423 425.452 940.093 425.718 939.684C429.318 934.154 436.035 932.551 444.043 933.545C451.881 934.518 459.968 937.885 464.979 940.685C465.412 940.927 465.888 941.032 466.362 940.99C466.837 940.947 467.295 940.759 467.695 940.442C468.095 940.125 468.424 939.69 468.652 939.176C468.88 938.662 469 938.086 469 937.5V860.5C469 859.828 468.843 859.171 468.547 858.606C468.252 858.041 467.83 857.593 467.334 857.315C461.919 854.284 453.229 850.651 444.618 849.58C437.224 848.663 429.102 849.552 423.5 855.481Z" fill="#C7CFCA"/>
</g>
<defs>
<clipPath id="clip0_713_1711">
<rect width="72" height="72" fill="white" transform="translate(279 175)"/>
</clipPath>
<clipPath id="clip1_713_1711">
<rect width="89" height="89" fill="white" transform="translate(89 798)"/>
</clipPath>
<clipPath id="clip2_713_1711">
<rect width="89" height="89" fill="white" transform="translate(616 589)"/>
</clipPath>
<clipPath id="clip3_713_1711">
<rect width="89" height="89" fill="white" transform="translate(0 454)"/>
</clipPath>
<clipPath id="clip4_713_1711">
<rect width="89.0197" height="89.0197" fill="white" transform="translate(616.159 125.883) rotate(-134.288)"/>
</clipPath>
<clipPath id="clip5_713_1711">
<rect width="89.0197" height="89.0197" fill="white" transform="translate(622.159 511.883) rotate(-134.288)"/>
</clipPath>
<clipPath id="clip6_713_1711">
<rect width="57" height="57" fill="white" transform="translate(449 207)"/>
</clipPath>
<clipPath id="clip7_713_1711">
<rect width="57" height="57" fill="white" transform="translate(189 927)"/>
</clipPath>
<clipPath id="clip8_713_1711">
<rect width="62" height="62" fill="white" transform="translate(46 207)"/>
</clipPath>
<clipPath id="clip9_713_1711">
<rect width="62" height="62" fill="white" transform="translate(398 17)"/>
</clipPath>
<clipPath id="clip10_713_1711">
<rect width="100" height="100" fill="white" transform="translate(516 764)"/>
</clipPath>
<clipPath id="clip11_713_1711">
<rect width="91" height="112" fill="white" transform="translate(75 35)"/>
</clipPath>
<clipPath id="clip12_713_1711">
<rect width="91" height="112" fill="white" transform="translate(378 843)"/>
</clipPath>
</defs>
</svg>
